<mxfile host="drawio-plugin" modified="2024-07-15T22:04:38.344Z" agent="Mozilla/5.0 (Windows NT 10.0; Win64; x64) AppleWebKit/537.36 (KHTML, like Gecko) Chrome/111.0.0.0 Safari/537.36" etag="cR-n4aHaL7NYNwKhTUHD" version="22.1.22" type="embed" pages="7">
  <diagram id="uwjTwuqR53ZdVXuBsRfG" name="workflow">
    <mxGraphModel dx="896" dy="1757" grid="0" gridSize="10" guides="1" tooltips="1" connect="1" arrows="1" fold="1" page="1" pageScale="1" pageWidth="850" pageHeight="1100" math="0" shadow="0">
      <root>
        <mxCell id="0" />
        <mxCell id="1" parent="0" />
        <mxCell id="w4aPLS1aNEaiYWyw084f-3" value="" style="strokeWidth=1;shadow=0;dashed=0;align=center;html=1;shape=mxgraph.mockup.containers.browserWindow;rSize=0;strokeColor=#666666;strokeColor2=#008cff;strokeColor3=#c4c4c4;mainText=,;recursiveResize=0;" parent="1" vertex="1">
          <mxGeometry x="7" y="-13" width="835" height="671" as="geometry" />
        </mxCell>
        <mxCell id="w4aPLS1aNEaiYWyw084f-4" value="Coffee" style="strokeWidth=1;shadow=0;dashed=0;align=center;html=1;shape=mxgraph.mockup.containers.anchor;fontSize=17;fontColor=#666666;align=left;" parent="w4aPLS1aNEaiYWyw084f-3" vertex="1">
          <mxGeometry x="60" y="12" width="110" height="26" as="geometry" />
        </mxCell>
        <mxCell id="w4aPLS1aNEaiYWyw084f-5" value="https://www.Coffee.io" style="strokeWidth=1;shadow=0;dashed=0;align=center;html=1;shape=mxgraph.mockup.containers.anchor;rSize=0;fontSize=17;fontColor=#666666;align=left;" parent="w4aPLS1aNEaiYWyw084f-3" vertex="1">
          <mxGeometry x="130" y="60" width="250" height="26" as="geometry" />
        </mxCell>
        <mxCell id="w4aPLS1aNEaiYWyw084f-14" value="add new" style="rounded=1;html=1;shadow=0;dashed=0;whiteSpace=wrap;fontSize=10;fillColor=#666666;align=center;strokeColor=#4D4D4D;fontColor=#ffffff;" parent="w4aPLS1aNEaiYWyw084f-3" vertex="1">
          <mxGeometry x="24.5" y="136.06" width="105.5" height="23.88" as="geometry" />
        </mxCell>
        <mxCell id="w4aPLS1aNEaiYWyw084f-15" value="" style="html=1;shadow=0;dashed=0;shape=mxgraph.bootstrap.horLines;strokeColor=#dddddd" parent="w4aPLS1aNEaiYWyw084f-3" vertex="1">
          <mxGeometry x="24" y="178" width="800" height="430" as="geometry" />
        </mxCell>
        <mxCell id="w4aPLS1aNEaiYWyw084f-16" value="" style="html=1;shadow=0;dashed=0;shape=mxgraph.bootstrap.horLines;strokeColor=inherit;fillColor=#000000;fillOpacity=3;resizeWidth=1;" parent="w4aPLS1aNEaiYWyw084f-15" vertex="1">
          <mxGeometry width="800" height="40" relative="1" as="geometry" />
        </mxCell>
        <mxCell id="w4aPLS1aNEaiYWyw084f-17" value="coffee name" style="html=1;shadow=0;dashed=0;shape=mxgraph.bootstrap.rect;strokeColor=none;fillColor=none;fontSize=14;fontStyle=1;align=left;spacingLeft=10;whiteSpace=wrap;resizeHeight=1;" parent="w4aPLS1aNEaiYWyw084f-16" vertex="1">
          <mxGeometry width="200" height="40" relative="1" as="geometry" />
        </mxCell>
        <mxCell id="w4aPLS1aNEaiYWyw084f-18" value="details" style="html=1;shadow=0;dashed=0;shape=mxgraph.bootstrap.rect;strokeColor=none;fillColor=none;fontSize=14;fontStyle=1;align=left;spacingLeft=10;whiteSpace=wrap;resizeWidth=1;resizeHeight=1;" parent="w4aPLS1aNEaiYWyw084f-16" vertex="1">
          <mxGeometry width="200" height="40" relative="1" as="geometry">
            <mxPoint x="200" as="offset" />
          </mxGeometry>
        </mxCell>
        <mxCell id="w4aPLS1aNEaiYWyw084f-19" value="" style="strokeColor=inherit;fillColor=inherit;gradientColor=inherit;html=1;shadow=0;dashed=0;shape=mxgraph.bootstrap.horLines;resizeWidth=1;" parent="w4aPLS1aNEaiYWyw084f-15" vertex="1">
          <mxGeometry width="800" height="130" relative="1" as="geometry">
            <mxPoint y="40" as="offset" />
          </mxGeometry>
        </mxCell>
        <mxCell id="w4aPLS1aNEaiYWyw084f-20" value="brand1" style="html=1;shadow=0;dashed=0;shape=mxgraph.bootstrap.rect;strokeColor=none;fillColor=none;align=left;spacingLeft=10;whiteSpace=wrap;" parent="w4aPLS1aNEaiYWyw084f-19" vertex="1">
          <mxGeometry width="200" height="40" relative="1" as="geometry" />
        </mxCell>
        <mxCell id="w4aPLS1aNEaiYWyw084f-21" value="details" style="html=1;shadow=0;dashed=0;shape=mxgraph.bootstrap.rect;strokeColor=none;fillColor=none;align=left;valign=top;spacingLeft=10;verticalAlign=top;spacingTop=6;whiteSpace=wrap;resizeWidth=1;" parent="w4aPLS1aNEaiYWyw084f-19" vertex="1">
          <mxGeometry width="400" height="130" relative="1" as="geometry">
            <mxPoint x="200" as="offset" />
          </mxGeometry>
        </mxCell>
        <mxCell id="w4aPLS1aNEaiYWyw084f-59" value="info" style="rounded=1;html=1;shadow=0;dashed=0;whiteSpace=wrap;fontSize=10;fillColor=#666666;align=center;strokeColor=#4D4D4D;fontColor=#ffffff;" parent="w4aPLS1aNEaiYWyw084f-19" vertex="1">
          <mxGeometry x="717" y="31" width="57.5" height="29.88" as="geometry" />
        </mxCell>
        <mxCell id="w4aPLS1aNEaiYWyw084f-24" value="" style="strokeColor=inherit;fillColor=inherit;gradientColor=inherit;html=1;shadow=0;dashed=0;shape=mxgraph.bootstrap.horLines;resizeWidth=1;" parent="w4aPLS1aNEaiYWyw084f-15" vertex="1">
          <mxGeometry width="800" height="100" relative="1" as="geometry">
            <mxPoint y="170" as="offset" />
          </mxGeometry>
        </mxCell>
        <mxCell id="w4aPLS1aNEaiYWyw084f-25" value="brand 2" style="html=1;shadow=0;dashed=0;shape=mxgraph.bootstrap.rect;strokeColor=none;fillColor=none;align=left;spacingLeft=10;whiteSpace=wrap;" parent="w4aPLS1aNEaiYWyw084f-24" vertex="1">
          <mxGeometry width="200" height="40" relative="1" as="geometry" />
        </mxCell>
        <mxCell id="w4aPLS1aNEaiYWyw084f-26" value="details" style="html=1;shadow=0;dashed=0;shape=mxgraph.bootstrap.rect;strokeColor=none;fillColor=none;align=left;valign=top;spacingLeft=10;verticalAlign=top;spacingTop=6;whiteSpace=wrap;resizeWidth=1;" parent="w4aPLS1aNEaiYWyw084f-24" vertex="1">
          <mxGeometry width="400" height="100" relative="1" as="geometry">
            <mxPoint x="200" as="offset" />
          </mxGeometry>
        </mxCell>
        <mxCell id="w4aPLS1aNEaiYWyw084f-84" value="info" style="rounded=1;html=1;shadow=0;dashed=0;whiteSpace=wrap;fontSize=10;fillColor=#666666;align=center;strokeColor=#4D4D4D;fontColor=#ffffff;" parent="w4aPLS1aNEaiYWyw084f-24" vertex="1">
          <mxGeometry x="720" y="17" width="57.5" height="29.88" as="geometry" />
        </mxCell>
        <mxCell id="w4aPLS1aNEaiYWyw084f-29" value="" style="strokeColor=inherit;fillColor=inherit;gradientColor=inherit;html=1;shadow=0;dashed=0;shape=mxgraph.bootstrap.horLines;resizeWidth=1;" parent="w4aPLS1aNEaiYWyw084f-15" vertex="1">
          <mxGeometry width="800" height="160" relative="1" as="geometry">
            <mxPoint y="270" as="offset" />
          </mxGeometry>
        </mxCell>
        <mxCell id="w4aPLS1aNEaiYWyw084f-30" value="brand 3" style="html=1;shadow=0;dashed=0;shape=mxgraph.bootstrap.rect;strokeColor=none;fillColor=none;align=left;spacingLeft=10;whiteSpace=wrap;" parent="w4aPLS1aNEaiYWyw084f-29" vertex="1">
          <mxGeometry width="200" height="40" as="geometry" />
        </mxCell>
        <mxCell id="w4aPLS1aNEaiYWyw084f-31" value="details" style="html=1;shadow=0;dashed=0;shape=mxgraph.bootstrap.rect;strokeColor=none;fillColor=none;align=left;valign=top;spacingLeft=10;verticalAlign=top;spacingTop=6;whiteSpace=wrap;resizeWidth=1;" parent="w4aPLS1aNEaiYWyw084f-29" vertex="1">
          <mxGeometry width="400" height="160" relative="1" as="geometry">
            <mxPoint x="200" as="offset" />
          </mxGeometry>
        </mxCell>
        <mxCell id="w4aPLS1aNEaiYWyw084f-85" value="info" style="rounded=1;html=1;shadow=0;dashed=0;whiteSpace=wrap;fontSize=10;fillColor=#666666;align=center;strokeColor=#4D4D4D;fontColor=#ffffff;" parent="w4aPLS1aNEaiYWyw084f-29" vertex="1">
          <mxGeometry x="725" y="17" width="57.5" height="29.88" as="geometry" />
        </mxCell>
        <mxCell id="w4aPLS1aNEaiYWyw084f-89" style="edgeStyle=orthogonalEdgeStyle;rounded=0;orthogonalLoop=1;jettySize=auto;html=1;exitX=0.75;exitY=1;exitDx=0;exitDy=0;entryX=0.749;entryY=0.652;entryDx=0;entryDy=0;entryPerimeter=0;" parent="w4aPLS1aNEaiYWyw084f-3" source="w4aPLS1aNEaiYWyw084f-14" target="w4aPLS1aNEaiYWyw084f-14" edge="1">
          <mxGeometry relative="1" as="geometry" />
        </mxCell>
        <mxCell id="gZ0bkS2lziLUnXESgO4R-1" value="Seach&amp;nbsp;" style="rounded=1;html=1;shadow=0;dashed=0;whiteSpace=wrap;fontSize=10;fillColor=#666666;align=center;strokeColor=#4D4D4D;fontColor=#ffffff;" parent="w4aPLS1aNEaiYWyw084f-3" vertex="1">
          <mxGeometry x="139" y="136.06" width="105.5" height="23.88" as="geometry" />
        </mxCell>
        <mxCell id="1Mon7TeGYUgNwSCkQnj_-33" value="Seach&amp;nbsp;" style="rounded=1;html=1;shadow=0;dashed=0;whiteSpace=wrap;fontSize=10;fillColor=#666666;align=center;strokeColor=#4D4D4D;fontColor=#ffffff;" parent="w4aPLS1aNEaiYWyw084f-3" vertex="1">
          <mxGeometry x="380" y="136.06" width="105.5" height="23.88" as="geometry" />
        </mxCell>
        <mxCell id="1Mon7TeGYUgNwSCkQnj_-32" value="Seach&amp;nbsp;" style="rounded=1;html=1;shadow=0;dashed=0;whiteSpace=wrap;fontSize=10;fillColor=#666666;align=center;strokeColor=#4D4D4D;fontColor=#ffffff;" parent="w4aPLS1aNEaiYWyw084f-3" vertex="1">
          <mxGeometry x="258" y="136.06" width="105.5" height="23.88" as="geometry" />
        </mxCell>
      </root>
    </mxGraphModel>
  </diagram>
  <diagram name="Copy of workflow" id="itpzHflgKaLZhn1da5Cy">
    <mxGraphModel dx="896" dy="1757" grid="0" gridSize="10" guides="1" tooltips="1" connect="1" arrows="1" fold="1" page="1" pageScale="1" pageWidth="850" pageHeight="1100" math="0" shadow="0">
      <root>
        <mxCell id="Vlsmf6WwMk4bOhUqtj2X-0" />
        <mxCell id="Vlsmf6WwMk4bOhUqtj2X-1" parent="Vlsmf6WwMk4bOhUqtj2X-0" />
        <mxCell id="Vlsmf6WwMk4bOhUqtj2X-2" value="" style="strokeWidth=1;shadow=0;dashed=0;align=center;html=1;shape=mxgraph.mockup.containers.browserWindow;rSize=0;strokeColor=#666666;strokeColor2=#008cff;strokeColor3=#c4c4c4;mainText=,;recursiveResize=0;" parent="Vlsmf6WwMk4bOhUqtj2X-1" vertex="1">
          <mxGeometry x="7" y="-13" width="835" height="671" as="geometry" />
        </mxCell>
        <mxCell id="Vlsmf6WwMk4bOhUqtj2X-3" value="Coffee" style="strokeWidth=1;shadow=0;dashed=0;align=center;html=1;shape=mxgraph.mockup.containers.anchor;fontSize=17;fontColor=#666666;align=left;" parent="Vlsmf6WwMk4bOhUqtj2X-2" vertex="1">
          <mxGeometry x="60" y="12" width="110" height="26" as="geometry" />
        </mxCell>
        <mxCell id="Vlsmf6WwMk4bOhUqtj2X-4" value="https://www.Coffee.io" style="strokeWidth=1;shadow=0;dashed=0;align=center;html=1;shape=mxgraph.mockup.containers.anchor;rSize=0;fontSize=17;fontColor=#666666;align=left;" parent="Vlsmf6WwMk4bOhUqtj2X-2" vertex="1">
          <mxGeometry x="130" y="60" width="250" height="26" as="geometry" />
        </mxCell>
        <mxCell id="Vlsmf6WwMk4bOhUqtj2X-5" value="add new" style="rounded=1;html=1;shadow=0;dashed=0;whiteSpace=wrap;fontSize=10;fillColor=#666666;align=center;strokeColor=#4D4D4D;fontColor=#ffffff;" parent="Vlsmf6WwMk4bOhUqtj2X-2" vertex="1">
          <mxGeometry x="24.5" y="136.06" width="105.5" height="23.88" as="geometry" />
        </mxCell>
        <mxCell id="Vlsmf6WwMk4bOhUqtj2X-6" value="" style="html=1;shadow=0;dashed=0;shape=mxgraph.bootstrap.horLines;strokeColor=#dddddd" parent="Vlsmf6WwMk4bOhUqtj2X-2" vertex="1">
          <mxGeometry x="24" y="178" width="800" height="430" as="geometry" />
        </mxCell>
        <mxCell id="Vlsmf6WwMk4bOhUqtj2X-7" value="" style="html=1;shadow=0;dashed=0;shape=mxgraph.bootstrap.horLines;strokeColor=inherit;fillColor=#000000;fillOpacity=3;resizeWidth=1;" parent="Vlsmf6WwMk4bOhUqtj2X-6" vertex="1">
          <mxGeometry width="800" height="40" relative="1" as="geometry" />
        </mxCell>
        <mxCell id="Vlsmf6WwMk4bOhUqtj2X-8" value="coffee name" style="html=1;shadow=0;dashed=0;shape=mxgraph.bootstrap.rect;strokeColor=none;fillColor=none;fontSize=14;fontStyle=1;align=left;spacingLeft=10;whiteSpace=wrap;resizeHeight=1;" parent="Vlsmf6WwMk4bOhUqtj2X-7" vertex="1">
          <mxGeometry width="200" height="40" relative="1" as="geometry" />
        </mxCell>
        <mxCell id="Vlsmf6WwMk4bOhUqtj2X-9" value="details" style="html=1;shadow=0;dashed=0;shape=mxgraph.bootstrap.rect;strokeColor=none;fillColor=none;fontSize=14;fontStyle=1;align=left;spacingLeft=10;whiteSpace=wrap;resizeWidth=1;resizeHeight=1;" parent="Vlsmf6WwMk4bOhUqtj2X-7" vertex="1">
          <mxGeometry width="200" height="40" relative="1" as="geometry">
            <mxPoint x="200" as="offset" />
          </mxGeometry>
        </mxCell>
        <mxCell id="Vlsmf6WwMk4bOhUqtj2X-10" value="" style="shape=rect;fillColor=#F6F6F6;strokeColor=none;" parent="Vlsmf6WwMk4bOhUqtj2X-7" vertex="1">
          <mxGeometry x="605" y="6" width="164" height="28" as="geometry" />
        </mxCell>
        <mxCell id="Vlsmf6WwMk4bOhUqtj2X-11" value="" style="html=1;strokeWidth=1;shadow=0;dashed=0;shape=mxgraph.ios7ui.marginRect;rx=3;ry=3;rectMargin=5;fillColor=#E4E4E4;strokeColor=none;" parent="Vlsmf6WwMk4bOhUqtj2X-10" vertex="1">
          <mxGeometry width="164" height="28" as="geometry" />
        </mxCell>
        <mxCell id="Vlsmf6WwMk4bOhUqtj2X-12" value="Search" style="shape=mxgraph.ios7.icons.looking_glass;strokeColor=#878789;fillColor=none;fontColor=#878789;labelPosition=right;verticalLabelPosition=middle;align=left;verticalAlign=middle;fontSize=6;fontStyle=0;spacingTop=2;" parent="Vlsmf6WwMk4bOhUqtj2X-10" vertex="1">
          <mxGeometry x="0.5" y="0.5" width="6" height="6" relative="1" as="geometry">
            <mxPoint x="-17" y="-3" as="offset" />
          </mxGeometry>
        </mxCell>
        <mxCell id="Vlsmf6WwMk4bOhUqtj2X-13" value="" style="strokeColor=inherit;fillColor=inherit;gradientColor=inherit;html=1;shadow=0;dashed=0;shape=mxgraph.bootstrap.horLines;resizeWidth=1;" parent="Vlsmf6WwMk4bOhUqtj2X-6" vertex="1">
          <mxGeometry width="800" height="130" relative="1" as="geometry">
            <mxPoint y="40" as="offset" />
          </mxGeometry>
        </mxCell>
        <mxCell id="Vlsmf6WwMk4bOhUqtj2X-14" value="brand1" style="html=1;shadow=0;dashed=0;shape=mxgraph.bootstrap.rect;strokeColor=none;fillColor=none;align=left;spacingLeft=10;whiteSpace=wrap;" parent="Vlsmf6WwMk4bOhUqtj2X-13" vertex="1">
          <mxGeometry width="200" height="40" relative="1" as="geometry" />
        </mxCell>
        <mxCell id="Vlsmf6WwMk4bOhUqtj2X-15" value="details" style="html=1;shadow=0;dashed=0;shape=mxgraph.bootstrap.rect;strokeColor=none;fillColor=none;align=left;valign=top;spacingLeft=10;verticalAlign=top;spacingTop=6;whiteSpace=wrap;resizeWidth=1;" parent="Vlsmf6WwMk4bOhUqtj2X-13" vertex="1">
          <mxGeometry width="400" height="130" relative="1" as="geometry">
            <mxPoint x="200" as="offset" />
          </mxGeometry>
        </mxCell>
        <mxCell id="Vlsmf6WwMk4bOhUqtj2X-16" value="Edit" style="html=1;shadow=0;dashed=0;shape=mxgraph.bootstrap.rrect;rSize=5;strokeColor=#dddddd;whiteSpace=wrap;" parent="Vlsmf6WwMk4bOhUqtj2X-13" vertex="1">
          <mxGeometry x="1" width="50" height="30" relative="1" as="geometry">
            <mxPoint x="-140" y="15" as="offset" />
          </mxGeometry>
        </mxCell>
        <mxCell id="Vlsmf6WwMk4bOhUqtj2X-17" value="Delete" style="html=1;shadow=0;dashed=0;shape=mxgraph.bootstrap.rrect;rSize=5;strokeColor=#dddddd;whiteSpace=wrap;" parent="Vlsmf6WwMk4bOhUqtj2X-13" vertex="1">
          <mxGeometry x="1" width="60" height="30" relative="1" as="geometry">
            <mxPoint x="-80" y="15" as="offset" />
          </mxGeometry>
        </mxCell>
        <mxCell id="Vlsmf6WwMk4bOhUqtj2X-18" value="info" style="rounded=1;html=1;shadow=0;dashed=0;whiteSpace=wrap;fontSize=10;fillColor=#666666;align=center;strokeColor=#4D4D4D;fontColor=#ffffff;" parent="Vlsmf6WwMk4bOhUqtj2X-13" vertex="1">
          <mxGeometry x="588" y="16" width="57.5" height="29.88" as="geometry" />
        </mxCell>
        <mxCell id="Vlsmf6WwMk4bOhUqtj2X-19" value="" style="strokeColor=inherit;fillColor=inherit;gradientColor=inherit;html=1;shadow=0;dashed=0;shape=mxgraph.bootstrap.horLines;resizeWidth=1;" parent="Vlsmf6WwMk4bOhUqtj2X-6" vertex="1">
          <mxGeometry width="800" height="100" relative="1" as="geometry">
            <mxPoint y="170" as="offset" />
          </mxGeometry>
        </mxCell>
        <mxCell id="Vlsmf6WwMk4bOhUqtj2X-20" value="brand 2" style="html=1;shadow=0;dashed=0;shape=mxgraph.bootstrap.rect;strokeColor=none;fillColor=none;align=left;spacingLeft=10;whiteSpace=wrap;" parent="Vlsmf6WwMk4bOhUqtj2X-19" vertex="1">
          <mxGeometry width="200" height="40" relative="1" as="geometry" />
        </mxCell>
        <mxCell id="Vlsmf6WwMk4bOhUqtj2X-21" value="details" style="html=1;shadow=0;dashed=0;shape=mxgraph.bootstrap.rect;strokeColor=none;fillColor=none;align=left;valign=top;spacingLeft=10;verticalAlign=top;spacingTop=6;whiteSpace=wrap;resizeWidth=1;" parent="Vlsmf6WwMk4bOhUqtj2X-19" vertex="1">
          <mxGeometry width="400" height="100" relative="1" as="geometry">
            <mxPoint x="200" as="offset" />
          </mxGeometry>
        </mxCell>
        <mxCell id="Vlsmf6WwMk4bOhUqtj2X-22" value="Edit" style="html=1;shadow=0;dashed=0;shape=mxgraph.bootstrap.rrect;rSize=5;strokeColor=#dddddd;whiteSpace=wrap;" parent="Vlsmf6WwMk4bOhUqtj2X-19" vertex="1">
          <mxGeometry x="1" width="50" height="30" relative="1" as="geometry">
            <mxPoint x="-140" y="15" as="offset" />
          </mxGeometry>
        </mxCell>
        <mxCell id="Vlsmf6WwMk4bOhUqtj2X-23" value="Delete" style="html=1;shadow=0;dashed=0;shape=mxgraph.bootstrap.rrect;rSize=5;strokeColor=#dddddd;whiteSpace=wrap;" parent="Vlsmf6WwMk4bOhUqtj2X-19" vertex="1">
          <mxGeometry x="1" width="60" height="30" relative="1" as="geometry">
            <mxPoint x="-80" y="15" as="offset" />
          </mxGeometry>
        </mxCell>
        <mxCell id="Vlsmf6WwMk4bOhUqtj2X-24" value="info" style="rounded=1;html=1;shadow=0;dashed=0;whiteSpace=wrap;fontSize=10;fillColor=#666666;align=center;strokeColor=#4D4D4D;fontColor=#ffffff;" parent="Vlsmf6WwMk4bOhUqtj2X-19" vertex="1">
          <mxGeometry x="588" y="16" width="57.5" height="29.88" as="geometry" />
        </mxCell>
        <mxCell id="Vlsmf6WwMk4bOhUqtj2X-25" value="" style="strokeColor=inherit;fillColor=inherit;gradientColor=inherit;html=1;shadow=0;dashed=0;shape=mxgraph.bootstrap.horLines;resizeWidth=1;" parent="Vlsmf6WwMk4bOhUqtj2X-6" vertex="1">
          <mxGeometry width="800" height="160" relative="1" as="geometry">
            <mxPoint y="270" as="offset" />
          </mxGeometry>
        </mxCell>
        <mxCell id="Vlsmf6WwMk4bOhUqtj2X-26" value="brand 3" style="html=1;shadow=0;dashed=0;shape=mxgraph.bootstrap.rect;strokeColor=none;fillColor=none;align=left;spacingLeft=10;whiteSpace=wrap;" parent="Vlsmf6WwMk4bOhUqtj2X-25" vertex="1">
          <mxGeometry width="200" height="40" as="geometry" />
        </mxCell>
        <mxCell id="Vlsmf6WwMk4bOhUqtj2X-27" value="details" style="html=1;shadow=0;dashed=0;shape=mxgraph.bootstrap.rect;strokeColor=none;fillColor=none;align=left;valign=top;spacingLeft=10;verticalAlign=top;spacingTop=6;whiteSpace=wrap;resizeWidth=1;" parent="Vlsmf6WwMk4bOhUqtj2X-25" vertex="1">
          <mxGeometry width="400" height="160" relative="1" as="geometry">
            <mxPoint x="200" as="offset" />
          </mxGeometry>
        </mxCell>
        <mxCell id="Vlsmf6WwMk4bOhUqtj2X-28" value="Edit" style="html=1;shadow=0;dashed=0;shape=mxgraph.bootstrap.rrect;rSize=5;strokeColor=#dddddd;whiteSpace=wrap;" parent="Vlsmf6WwMk4bOhUqtj2X-25" vertex="1">
          <mxGeometry x="1" width="50" height="30" relative="1" as="geometry">
            <mxPoint x="-140" y="15" as="offset" />
          </mxGeometry>
        </mxCell>
        <mxCell id="Vlsmf6WwMk4bOhUqtj2X-29" value="Delete" style="html=1;shadow=0;dashed=0;shape=mxgraph.bootstrap.rrect;rSize=5;strokeColor=#dddddd;whiteSpace=wrap;" parent="Vlsmf6WwMk4bOhUqtj2X-25" vertex="1">
          <mxGeometry x="1" width="60" height="30" relative="1" as="geometry">
            <mxPoint x="-80" y="15" as="offset" />
          </mxGeometry>
        </mxCell>
        <mxCell id="Vlsmf6WwMk4bOhUqtj2X-30" value="info" style="rounded=1;html=1;shadow=0;dashed=0;whiteSpace=wrap;fontSize=10;fillColor=#666666;align=center;strokeColor=#4D4D4D;fontColor=#ffffff;" parent="Vlsmf6WwMk4bOhUqtj2X-25" vertex="1">
          <mxGeometry x="592" y="17" width="57.5" height="29.88" as="geometry" />
        </mxCell>
        <mxCell id="Vlsmf6WwMk4bOhUqtj2X-31" style="edgeStyle=orthogonalEdgeStyle;rounded=0;orthogonalLoop=1;jettySize=auto;html=1;exitX=0.75;exitY=1;exitDx=0;exitDy=0;entryX=0.749;entryY=0.652;entryDx=0;entryDy=0;entryPerimeter=0;" parent="Vlsmf6WwMk4bOhUqtj2X-2" source="Vlsmf6WwMk4bOhUqtj2X-5" target="Vlsmf6WwMk4bOhUqtj2X-5" edge="1">
          <mxGeometry relative="1" as="geometry" />
        </mxCell>
        <mxCell id="Vlsmf6WwMk4bOhUqtj2X-32" value="Seach&amp;nbsp;" style="rounded=1;html=1;shadow=0;dashed=0;whiteSpace=wrap;fontSize=10;fillColor=#666666;align=center;strokeColor=#4D4D4D;fontColor=#ffffff;" parent="Vlsmf6WwMk4bOhUqtj2X-2" vertex="1">
          <mxGeometry x="139" y="136.06" width="105.5" height="23.88" as="geometry" />
        </mxCell>
        <mxCell id="Vlsmf6WwMk4bOhUqtj2X-33" value="Seach&amp;nbsp;" style="rounded=1;html=1;shadow=0;dashed=0;whiteSpace=wrap;fontSize=10;fillColor=#666666;align=center;strokeColor=#4D4D4D;fontColor=#ffffff;" parent="Vlsmf6WwMk4bOhUqtj2X-2" vertex="1">
          <mxGeometry x="380" y="136.06" width="105.5" height="23.88" as="geometry" />
        </mxCell>
        <mxCell id="Vlsmf6WwMk4bOhUqtj2X-34" value="Seach&amp;nbsp;" style="rounded=1;html=1;shadow=0;dashed=0;whiteSpace=wrap;fontSize=10;fillColor=#666666;align=center;strokeColor=#4D4D4D;fontColor=#ffffff;" parent="Vlsmf6WwMk4bOhUqtj2X-2" vertex="1">
          <mxGeometry x="258" y="136.06" width="105.5" height="23.88" as="geometry" />
        </mxCell>
      </root>
    </mxGraphModel>
  </diagram>
  <diagram id="EjaVb2C3L17EZjZhs3NY" name="newCoffee">
    <mxGraphModel dx="896" dy="657" grid="0" gridSize="10" guides="1" tooltips="1" connect="1" arrows="1" fold="1" page="1" pageScale="1" pageWidth="850" pageHeight="1100" math="0" shadow="0">
      <root>
        <mxCell id="_HEtuEl6Ucexma2GlZGo-0" />
        <mxCell id="_HEtuEl6Ucexma2GlZGo-1" parent="_HEtuEl6Ucexma2GlZGo-0" />
        <mxCell id="_HEtuEl6Ucexma2GlZGo-2" value="" style="strokeWidth=1;shadow=0;dashed=0;align=center;html=1;shape=mxgraph.mockup.forms.rrect;rSize=0;strokeColor=#999999;fillColor=#ffffff;" parent="_HEtuEl6Ucexma2GlZGo-1" vertex="1">
          <mxGeometry x="146" y="56" width="404" height="688" as="geometry" />
        </mxCell>
        <mxCell id="_HEtuEl6Ucexma2GlZGo-3" value="New Coffee form" style="strokeWidth=1;shadow=0;dashed=0;align=center;html=1;shape=mxgraph.mockup.forms.anchor;fontSize=12;fontColor=#666666;align=left;resizeWidth=1;spacingLeft=0;" parent="_HEtuEl6Ucexma2GlZGo-2" vertex="1">
          <mxGeometry width="202.00000000000003" height="20" relative="1" as="geometry">
            <mxPoint x="10" y="10" as="offset" />
          </mxGeometry>
        </mxCell>
        <mxCell id="_HEtuEl6Ucexma2GlZGo-4" value="" style="shape=line;strokeColor=#ddeeff;strokeWidth=2;html=1;resizeWidth=1;" parent="_HEtuEl6Ucexma2GlZGo-2" vertex="1">
          <mxGeometry width="363.59999999999997" height="10" relative="1" as="geometry">
            <mxPoint x="10" y="30" as="offset" />
          </mxGeometry>
        </mxCell>
        <mxCell id="_HEtuEl6Ucexma2GlZGo-5" value="Roaster" style="strokeWidth=1;shadow=0;dashed=0;align=center;html=1;shape=mxgraph.mockup.forms.anchor;fontSize=12;fontColor=#666666;align=left;resizeWidth=1;spacingLeft=0;" parent="_HEtuEl6Ucexma2GlZGo-2" vertex="1">
          <mxGeometry width="202.00000000000003" height="20" relative="1" as="geometry">
            <mxPoint x="29.07" y="79" as="offset" />
          </mxGeometry>
        </mxCell>
        <mxCell id="_HEtuEl6Ucexma2GlZGo-6" value="coffeee brand" style="strokeWidth=1;shadow=0;dashed=0;align=center;html=1;shape=mxgraph.mockup.forms.rrect;rSize=0;strokeColor=#999999;fontColor=#666666;align=left;spacingLeft=5;resizeWidth=1;" parent="_HEtuEl6Ucexma2GlZGo-2" vertex="1">
          <mxGeometry width="289.5496368038741" height="25" relative="1" as="geometry">
            <mxPoint x="29.07" y="100" as="offset" />
          </mxGeometry>
        </mxCell>
        <mxCell id="_HEtuEl6Ucexma2GlZGo-9" value="Submit" style="strokeWidth=1;shadow=0;dashed=0;align=center;html=1;shape=mxgraph.mockup.forms.rrect;rSize=5;strokeColor=none;fontColor=#ffffff;fillColor=#66bbff;fontSize=16;fontStyle=1;" parent="_HEtuEl6Ucexma2GlZGo-2" vertex="1">
          <mxGeometry y="1" width="80" height="30" relative="1" as="geometry">
            <mxPoint x="291" y="-46" as="offset" />
          </mxGeometry>
        </mxCell>
        <mxCell id="_HEtuEl6Ucexma2GlZGo-11" value="" style="shape=line;strokeColor=#ddeeff;strokeWidth=2;html=1;resizeWidth=1;" parent="_HEtuEl6Ucexma2GlZGo-2" vertex="1">
          <mxGeometry y="1" width="363.59999999999997" height="10" relative="1" as="geometry">
            <mxPoint x="20.65" y="-63" as="offset" />
          </mxGeometry>
        </mxCell>
        <mxCell id="_HEtuEl6Ucexma2GlZGo-13" value="Clear" style="strokeWidth=1;shadow=0;dashed=0;align=center;html=1;shape=mxgraph.mockup.forms.rrect;rSize=5;strokeColor=none;fontColor=#ffffff;fillColor=#66bbff;fontSize=16;fontStyle=1;" parent="_HEtuEl6Ucexma2GlZGo-2" vertex="1">
          <mxGeometry y="1" width="80" height="30" relative="1" as="geometry">
            <mxPoint x="20" y="-50" as="offset" />
          </mxGeometry>
        </mxCell>
        <mxCell id="NZZTwfxy8jXIzdVNjfue-0" value="8oz" style="shape=ellipse;fillColor=#eeeeee;strokeColor=#999999;gradientColor=#cccccc;html=1;align=left;spacingLeft=4;fontSize=17;fontColor=#666666;labelPosition=right;shadow=0;" parent="_HEtuEl6Ucexma2GlZGo-2" vertex="1">
          <mxGeometry x="34.320388349514566" y="153.00204081632654" width="14.708737864077671" height="17.551020408163264" as="geometry" />
        </mxCell>
        <mxCell id="NZZTwfxy8jXIzdVNjfue-2" value="32oz" style="shape=ellipse;fillColor=#eeeeee;strokeColor=#999999;gradientColor=#cccccc;html=1;align=left;spacingLeft=4;fontSize=17;fontColor=#666666;labelPosition=right;shadow=0;" parent="_HEtuEl6Ucexma2GlZGo-2" vertex="1">
          <mxGeometry x="263.77669902912623" y="153.00204081632654" width="14.708737864077671" height="17.551020408163264" as="geometry" />
        </mxCell>
        <mxCell id="NZZTwfxy8jXIzdVNjfue-1" value="16oz" style="shape=ellipse;fillColor=#eeeeee;strokeColor=#999999;gradientColor=#cccccc;html=1;align=left;spacingLeft=4;fontSize=17;fontColor=#666666;labelPosition=right;shadow=0;" parent="_HEtuEl6Ucexma2GlZGo-2" vertex="1">
          <mxGeometry x="149.0485436893204" y="153.00204081632654" width="14.708737864077671" height="17.551020408163264" as="geometry" />
        </mxCell>
        <mxCell id="NZZTwfxy8jXIzdVNjfue-5" value="Roast" style="rounded=1;fillColor=none;strokeColor=none;html=1;fontColor=#596780;align=left;fontSize=11;spacingLeft=10;fontSize=11" parent="_HEtuEl6Ucexma2GlZGo-2" vertex="1">
          <mxGeometry x="27.39021039516679" y="189.99517006802722" width="98.05825242718446" height="23.401360544217688" as="geometry" />
        </mxCell>
        <mxCell id="NZZTwfxy8jXIzdVNjfue-6" value="roast type" style="rounded=1;fillColor=#F1F2F4;strokeColor=none;html=1;fontColor=#596780;align=left;fontSize=12;spacingLeft=10" parent="_HEtuEl6Ucexma2GlZGo-2" vertex="1">
          <mxGeometry x="27.39021039516679" y="213.39653061224487" width="280.4466019417476" height="38.61224489795918" as="geometry" />
        </mxCell>
        <mxCell id="NZZTwfxy8jXIzdVNjfue-7" value="" style="shape=triangle;direction=south;fillColor=#596780;strokeColor=none;html=1" parent="NZZTwfxy8jXIzdVNjfue-6" vertex="1">
          <mxGeometry x="1" y="0.5" width="12" height="6" relative="1" as="geometry">
            <mxPoint x="-20" y="-3" as="offset" />
          </mxGeometry>
        </mxCell>
        <mxCell id="NZZTwfxy8jXIzdVNjfue-8" value="Package" style="rounded=1;fillColor=none;strokeColor=none;html=1;fontColor=#596780;align=left;fontSize=11;spacingLeft=10;fontSize=11" parent="_HEtuEl6Ucexma2GlZGo-2" vertex="1">
          <mxGeometry x="30.329298761136844" y="265.9995918367347" width="98.05825242718446" height="23.401360544217688" as="geometry" />
        </mxCell>
        <mxCell id="NZZTwfxy8jXIzdVNjfue-9" value="format" style="rounded=1;fillColor=#F1F2F4;strokeColor=none;html=1;fontColor=#596780;align=left;fontSize=12;spacingLeft=10" parent="_HEtuEl6Ucexma2GlZGo-2" vertex="1">
          <mxGeometry x="30.329298761136844" y="289.40095238095233" width="280.4466019417476" height="38.61224489795918" as="geometry" />
        </mxCell>
        <mxCell id="NZZTwfxy8jXIzdVNjfue-10" value="" style="shape=triangle;direction=south;fillColor=#596780;strokeColor=none;html=1" parent="NZZTwfxy8jXIzdVNjfue-9" vertex="1">
          <mxGeometry x="1" y="0.5" width="12" height="6" relative="1" as="geometry">
            <mxPoint x="-20" y="-3" as="offset" />
          </mxGeometry>
        </mxCell>
        <mxCell id="NZZTwfxy8jXIzdVNjfue-13" value="" style="strokeWidth=1;shadow=0;dashed=0;align=center;html=1;shape=mxgraph.mockup.forms.anchor;fontSize=12;fontColor=#666666;align=left;resizeWidth=1;spacingLeft=0;" parent="_HEtuEl6Ucexma2GlZGo-2" vertex="1">
          <mxGeometry x="17.160194174757283" y="415.3741496598639" width="202.00000000000003" height="23.401360544217688" as="geometry">
            <mxPoint x="10" y="40" as="offset" />
          </mxGeometry>
        </mxCell>
        <mxCell id="NZZTwfxy8jXIzdVNjfue-16" value="" style="html=1;verticalLabelPosition=bottom;labelBackgroundColor=#ffffff;verticalAlign=top;shadow=0;dashed=0;strokeWidth=1;shape=mxgraph.ios7ui.slider;barPos=20;strokeColor=#0080f0;strokeColor2=#a0a0a0;" parent="_HEtuEl6Ucexma2GlZGo-2" vertex="1">
          <mxGeometry x="34.23728813559322" y="388" width="294.44067796610165" height="15" as="geometry" />
        </mxCell>
        <mxCell id="NZZTwfxy8jXIzdVNjfue-17" value="Roast grind level" style="text;html=1;strokeColor=none;fillColor=none;align=center;verticalAlign=middle;whiteSpace=wrap;rounded=0;" parent="_HEtuEl6Ucexma2GlZGo-2" vertex="1">
          <mxGeometry x="34.23728813559322" y="361" width="115.42857142857142" height="20" as="geometry" />
        </mxCell>
        <mxCell id="NZZTwfxy8jXIzdVNjfue-18" value="" style="verticalLabelPosition=bottom;verticalAlign=top;html=1;shadow=0;dashed=0;strokeWidth=1;shape=mxgraph.android.switch_on;fillColor=#E6E6E6;" parent="_HEtuEl6Ucexma2GlZGo-2" vertex="1">
          <mxGeometry x="40.233704600484266" y="507" width="78.25665859564164" height="20" as="geometry" />
        </mxCell>
        <mxCell id="NZZTwfxy8jXIzdVNjfue-21" value="" style="rounded=0;whiteSpace=wrap;html=1;" parent="_HEtuEl6Ucexma2GlZGo-2" vertex="1">
          <mxGeometry x="36.19370460048426" y="438" width="298.35351089588374" height="28" as="geometry" />
        </mxCell>
        <mxCell id="NZZTwfxy8jXIzdVNjfue-22" value="origin" style="text;html=1;strokeColor=none;fillColor=none;align=center;verticalAlign=middle;whiteSpace=wrap;rounded=0;" parent="_HEtuEl6Ucexma2GlZGo-2" vertex="1">
          <mxGeometry x="36.19370460048426" y="411" width="39.12832929782082" height="20" as="geometry" />
        </mxCell>
        <mxCell id="NZZTwfxy8jXIzdVNjfue-23" value="single origin?" style="text;html=1;strokeColor=none;fillColor=none;align=center;verticalAlign=middle;whiteSpace=wrap;rounded=0;" parent="_HEtuEl6Ucexma2GlZGo-2" vertex="1">
          <mxGeometry x="36.19370460048426" y="477" width="89.01694915254235" height="20" as="geometry" />
        </mxCell>
        <mxCell id="NZZTwfxy8jXIzdVNjfue-24" value="" style="rounded=0;whiteSpace=wrap;html=1;" parent="_HEtuEl6Ucexma2GlZGo-2" vertex="1">
          <mxGeometry x="36.19370460048426" y="560" width="302.26634382566584" height="60" as="geometry" />
        </mxCell>
        <mxCell id="NZZTwfxy8jXIzdVNjfue-25" value="Notes" style="text;html=1;strokeColor=none;fillColor=none;align=center;verticalAlign=middle;whiteSpace=wrap;rounded=0;" parent="_HEtuEl6Ucexma2GlZGo-2" vertex="1">
          <mxGeometry x="36.19" y="537" width="40" height="20" as="geometry" />
        </mxCell>
      </root>
    </mxGraphModel>
  </diagram>
  <diagram name="edit coffee form" id="K2t-ncgJhm1OfSEwEkw3">
    <mxGraphModel dx="896" dy="657" grid="0" gridSize="10" guides="1" tooltips="1" connect="1" arrows="1" fold="1" page="1" pageScale="1" pageWidth="850" pageHeight="1100" math="0" shadow="0">
      <root>
        <mxCell id="0QyAEohYzLP-kFhEJK_E-0" />
        <mxCell id="0QyAEohYzLP-kFhEJK_E-1" parent="0QyAEohYzLP-kFhEJK_E-0" />
        <mxCell id="0QyAEohYzLP-kFhEJK_E-2" value="" style="strokeWidth=1;shadow=0;dashed=0;align=center;html=1;shape=mxgraph.mockup.forms.rrect;rSize=0;strokeColor=#999999;fillColor=#ffffff;" parent="0QyAEohYzLP-kFhEJK_E-1" vertex="1">
          <mxGeometry x="142" y="39" width="404" height="688" as="geometry" />
        </mxCell>
        <mxCell id="0QyAEohYzLP-kFhEJK_E-3" value="edit coffee" style="strokeWidth=1;shadow=0;dashed=0;align=center;html=1;shape=mxgraph.mockup.forms.anchor;fontSize=12;fontColor=#666666;align=left;resizeWidth=1;spacingLeft=0;" parent="0QyAEohYzLP-kFhEJK_E-2" vertex="1">
          <mxGeometry width="202.00000000000003" height="20" relative="1" as="geometry">
            <mxPoint x="10" y="10" as="offset" />
          </mxGeometry>
        </mxCell>
        <mxCell id="0QyAEohYzLP-kFhEJK_E-4" value="" style="shape=line;strokeColor=#ddeeff;strokeWidth=2;html=1;resizeWidth=1;" parent="0QyAEohYzLP-kFhEJK_E-2" vertex="1">
          <mxGeometry width="363.59999999999997" height="10" relative="1" as="geometry">
            <mxPoint x="10" y="30" as="offset" />
          </mxGeometry>
        </mxCell>
        <mxCell id="0QyAEohYzLP-kFhEJK_E-5" value="Roaster" style="strokeWidth=1;shadow=0;dashed=0;align=center;html=1;shape=mxgraph.mockup.forms.anchor;fontSize=12;fontColor=#666666;align=left;resizeWidth=1;spacingLeft=0;" parent="0QyAEohYzLP-kFhEJK_E-2" vertex="1">
          <mxGeometry width="202.00000000000003" height="20" relative="1" as="geometry">
            <mxPoint x="29.07" y="79" as="offset" />
          </mxGeometry>
        </mxCell>
        <mxCell id="0QyAEohYzLP-kFhEJK_E-6" value="brand anme 1" style="strokeWidth=1;shadow=0;dashed=0;align=center;html=1;shape=mxgraph.mockup.forms.rrect;rSize=0;strokeColor=#999999;fontColor=#666666;align=left;spacingLeft=5;resizeWidth=1;" parent="0QyAEohYzLP-kFhEJK_E-2" vertex="1">
          <mxGeometry width="289.5496368038741" height="25" relative="1" as="geometry">
            <mxPoint x="29.07" y="100" as="offset" />
          </mxGeometry>
        </mxCell>
        <mxCell id="0QyAEohYzLP-kFhEJK_E-7" value="Submit" style="strokeWidth=1;shadow=0;dashed=0;align=center;html=1;shape=mxgraph.mockup.forms.rrect;rSize=5;strokeColor=none;fontColor=#ffffff;fillColor=#66bbff;fontSize=16;fontStyle=1;" parent="0QyAEohYzLP-kFhEJK_E-2" vertex="1">
          <mxGeometry y="1" width="80" height="30" relative="1" as="geometry">
            <mxPoint x="302" y="-39" as="offset" />
          </mxGeometry>
        </mxCell>
        <mxCell id="0QyAEohYzLP-kFhEJK_E-8" value="" style="shape=line;strokeColor=#ddeeff;strokeWidth=2;html=1;resizeWidth=1;" parent="0QyAEohYzLP-kFhEJK_E-2" vertex="1">
          <mxGeometry y="1" width="363.59999999999997" height="10" relative="1" as="geometry">
            <mxPoint x="20.65" y="-63" as="offset" />
          </mxGeometry>
        </mxCell>
        <mxCell id="0QyAEohYzLP-kFhEJK_E-9" value="Clear" style="strokeWidth=1;shadow=0;dashed=0;align=center;html=1;shape=mxgraph.mockup.forms.rrect;rSize=5;strokeColor=none;fontColor=#ffffff;fillColor=#66bbff;fontSize=16;fontStyle=1;" parent="0QyAEohYzLP-kFhEJK_E-2" vertex="1">
          <mxGeometry y="1" width="80" height="30" relative="1" as="geometry">
            <mxPoint x="213" y="-39" as="offset" />
          </mxGeometry>
        </mxCell>
        <mxCell id="0QyAEohYzLP-kFhEJK_E-10" value="8oz" style="shape=ellipse;fillColor=#eeeeee;strokeColor=#999999;gradientColor=#cccccc;html=1;align=left;spacingLeft=4;fontSize=17;fontColor=#666666;labelPosition=right;shadow=0;" parent="0QyAEohYzLP-kFhEJK_E-2" vertex="1">
          <mxGeometry x="34.320388349514566" y="153.00204081632654" width="14.708737864077671" height="17.551020408163264" as="geometry" />
        </mxCell>
        <mxCell id="0QyAEohYzLP-kFhEJK_E-11" value="32oz" style="shape=ellipse;fillColor=#eeeeee;strokeColor=#999999;gradientColor=#cccccc;html=1;align=left;spacingLeft=4;fontSize=17;fontColor=#666666;labelPosition=right;shadow=0;" parent="0QyAEohYzLP-kFhEJK_E-2" vertex="1">
          <mxGeometry x="263.77669902912623" y="153.00204081632654" width="14.708737864077671" height="17.551020408163264" as="geometry" />
        </mxCell>
        <mxCell id="0QyAEohYzLP-kFhEJK_E-12" value="16oz" style="shape=ellipse;fillColor=#eeeeee;strokeColor=#999999;gradientColor=#cccccc;html=1;align=left;spacingLeft=4;fontSize=17;fontColor=#666666;labelPosition=right;shadow=0;" parent="0QyAEohYzLP-kFhEJK_E-2" vertex="1">
          <mxGeometry x="149.0485436893204" y="153.00204081632654" width="14.708737864077671" height="17.551020408163264" as="geometry" />
        </mxCell>
        <mxCell id="0QyAEohYzLP-kFhEJK_E-13" value="Roast" style="rounded=1;fillColor=none;strokeColor=none;html=1;fontColor=#596780;align=left;fontSize=11;spacingLeft=10;fontSize=11" parent="0QyAEohYzLP-kFhEJK_E-2" vertex="1">
          <mxGeometry x="27.39021039516679" y="189.99517006802722" width="98.05825242718446" height="23.401360544217688" as="geometry" />
        </mxCell>
        <mxCell id="0QyAEohYzLP-kFhEJK_E-14" value="blonde" style="rounded=1;fillColor=#F1F2F4;strokeColor=none;html=1;fontColor=#596780;align=left;fontSize=12;spacingLeft=10" parent="0QyAEohYzLP-kFhEJK_E-2" vertex="1">
          <mxGeometry x="27.39021039516679" y="213.39653061224487" width="280.4466019417476" height="38.61224489795918" as="geometry" />
        </mxCell>
        <mxCell id="0QyAEohYzLP-kFhEJK_E-15" value="" style="shape=triangle;direction=south;fillColor=#596780;strokeColor=none;html=1" parent="0QyAEohYzLP-kFhEJK_E-14" vertex="1">
          <mxGeometry x="1" y="0.5" width="12" height="6" relative="1" as="geometry">
            <mxPoint x="-20" y="-3" as="offset" />
          </mxGeometry>
        </mxCell>
        <mxCell id="0QyAEohYzLP-kFhEJK_E-16" value="Package" style="rounded=1;fillColor=none;strokeColor=none;html=1;fontColor=#596780;align=left;fontSize=11;spacingLeft=10;fontSize=11" parent="0QyAEohYzLP-kFhEJK_E-2" vertex="1">
          <mxGeometry x="30.329298761136844" y="265.9995918367347" width="98.05825242718446" height="23.401360544217688" as="geometry" />
        </mxCell>
        <mxCell id="0QyAEohYzLP-kFhEJK_E-17" value="beans" style="rounded=1;fillColor=#F1F2F4;strokeColor=none;html=1;fontColor=#596780;align=left;fontSize=12;spacingLeft=10" parent="0QyAEohYzLP-kFhEJK_E-2" vertex="1">
          <mxGeometry x="30.329298761136844" y="289.40095238095233" width="280.4466019417476" height="38.61224489795918" as="geometry" />
        </mxCell>
        <mxCell id="0QyAEohYzLP-kFhEJK_E-18" value="" style="shape=triangle;direction=south;fillColor=#596780;strokeColor=none;html=1" parent="0QyAEohYzLP-kFhEJK_E-17" vertex="1">
          <mxGeometry x="1" y="0.5" width="12" height="6" relative="1" as="geometry">
            <mxPoint x="-20" y="-3" as="offset" />
          </mxGeometry>
        </mxCell>
        <mxCell id="0QyAEohYzLP-kFhEJK_E-19" value="" style="strokeWidth=1;shadow=0;dashed=0;align=center;html=1;shape=mxgraph.mockup.forms.anchor;fontSize=12;fontColor=#666666;align=left;resizeWidth=1;spacingLeft=0;" parent="0QyAEohYzLP-kFhEJK_E-2" vertex="1">
          <mxGeometry x="17.160194174757283" y="415.3741496598639" width="202.00000000000003" height="23.401360544217688" as="geometry">
            <mxPoint x="10" y="40" as="offset" />
          </mxGeometry>
        </mxCell>
        <mxCell id="0QyAEohYzLP-kFhEJK_E-20" value="" style="html=1;verticalLabelPosition=bottom;labelBackgroundColor=#ffffff;verticalAlign=top;shadow=0;dashed=0;strokeWidth=1;shape=mxgraph.ios7ui.slider;barPos=20;strokeColor=#0080f0;strokeColor2=#a0a0a0;" parent="0QyAEohYzLP-kFhEJK_E-2" vertex="1">
          <mxGeometry x="34.23728813559322" y="388" width="294.44067796610165" height="15" as="geometry" />
        </mxCell>
        <mxCell id="0QyAEohYzLP-kFhEJK_E-21" value="Medium" style="text;html=1;strokeColor=none;fillColor=none;align=center;verticalAlign=middle;whiteSpace=wrap;rounded=0;" parent="0QyAEohYzLP-kFhEJK_E-2" vertex="1">
          <mxGeometry x="34.23728813559322" y="361" width="115.42857142857142" height="20" as="geometry" />
        </mxCell>
        <mxCell id="0QyAEohYzLP-kFhEJK_E-22" value="" style="verticalLabelPosition=bottom;verticalAlign=top;html=1;shadow=0;dashed=0;strokeWidth=1;shape=mxgraph.android.switch_on;fillColor=#E6E6E6;" parent="0QyAEohYzLP-kFhEJK_E-2" vertex="1">
          <mxGeometry x="40.233704600484266" y="507" width="78.25665859564164" height="20" as="geometry" />
        </mxCell>
        <mxCell id="0QyAEohYzLP-kFhEJK_E-23" value="Costa rica" style="rounded=0;whiteSpace=wrap;html=1;" parent="0QyAEohYzLP-kFhEJK_E-2" vertex="1">
          <mxGeometry x="36.19370460048426" y="438" width="298.35351089588374" height="28" as="geometry" />
        </mxCell>
        <mxCell id="0QyAEohYzLP-kFhEJK_E-24" value="origin" style="text;html=1;strokeColor=none;fillColor=none;align=center;verticalAlign=middle;whiteSpace=wrap;rounded=0;" parent="0QyAEohYzLP-kFhEJK_E-2" vertex="1">
          <mxGeometry x="36.19370460048426" y="411" width="39.12832929782082" height="20" as="geometry" />
        </mxCell>
        <mxCell id="0QyAEohYzLP-kFhEJK_E-25" value="single origin?" style="text;html=1;strokeColor=none;fillColor=none;align=center;verticalAlign=middle;whiteSpace=wrap;rounded=0;" parent="0QyAEohYzLP-kFhEJK_E-2" vertex="1">
          <mxGeometry x="36.19370460048426" y="477" width="89.01694915254235" height="20" as="geometry" />
        </mxCell>
        <mxCell id="0QyAEohYzLP-kFhEJK_E-26" value="Tastes great" style="rounded=0;whiteSpace=wrap;html=1;" parent="0QyAEohYzLP-kFhEJK_E-2" vertex="1">
          <mxGeometry x="36.19370460048426" y="560" width="302.26634382566584" height="60" as="geometry" />
        </mxCell>
        <mxCell id="0QyAEohYzLP-kFhEJK_E-27" value="Notes" style="text;html=1;strokeColor=none;fillColor=none;align=center;verticalAlign=middle;whiteSpace=wrap;rounded=0;" parent="0QyAEohYzLP-kFhEJK_E-2" vertex="1">
          <mxGeometry x="36.19" y="537" width="40" height="20" as="geometry" />
        </mxCell>
        <mxCell id="E6C016u44By9qNtRfSSs-0" value="ID:" style="text;html=1;strokeColor=none;fillColor=none;align=center;verticalAlign=middle;whiteSpace=wrap;rounded=0;" parent="0QyAEohYzLP-kFhEJK_E-2" vertex="1">
          <mxGeometry x="30" y="46" width="40" height="20" as="geometry" />
        </mxCell>
        <mxCell id="E6C016u44By9qNtRfSSs-1" value="1" style="text;html=1;strokeColor=none;fillColor=none;align=center;verticalAlign=middle;whiteSpace=wrap;rounded=0;" parent="0QyAEohYzLP-kFhEJK_E-2" vertex="1">
          <mxGeometry x="60.7" y="46" width="40" height="20" as="geometry" />
        </mxCell>
        <mxCell id="E6C016u44By9qNtRfSSs-2" value="" style="shape=ellipse;fillColor=#0065FF;strokeColor=none;html=1" parent="0QyAEohYzLP-kFhEJK_E-2" vertex="1">
          <mxGeometry x="36" y="157" width="10" height="10" as="geometry" />
        </mxCell>
        <mxCell id="9TRmPr-KAPmWUMMtzYyT-3" value="DELETE COFFEE" style="rounded=1;html=1;shadow=0;dashed=0;whiteSpace=wrap;fontSize=10;fillColor=#ffcccc;align=center;strokeColor=#36393d;" parent="0QyAEohYzLP-kFhEJK_E-2" vertex="1">
          <mxGeometry x="23" y="649" width="105.5" height="29" as="geometry" />
        </mxCell>
      </root>
    </mxGraphModel>
  </diagram>
  <diagram name="detail form 2" id="a6Ia7CLRDAjX2za7_Vmz">
    <mxGraphModel dx="896" dy="657" grid="0" gridSize="10" guides="1" tooltips="1" connect="1" arrows="1" fold="1" page="1" pageScale="1" pageWidth="850" pageHeight="1100" math="0" shadow="0">
      <root>
        <mxCell id="v_Va48G61H6f7VJdGEz--0" />
        <mxCell id="v_Va48G61H6f7VJdGEz--1" parent="v_Va48G61H6f7VJdGEz--0" />
        <mxCell id="v_Va48G61H6f7VJdGEz--2" value="" style="strokeWidth=1;shadow=0;dashed=0;align=center;html=1;shape=mxgraph.mockup.forms.rrect;rSize=0;strokeColor=#999999;fillColor=#ffffff;" parent="v_Va48G61H6f7VJdGEz--1" vertex="1">
          <mxGeometry x="142" y="39" width="404" height="688" as="geometry" />
        </mxCell>
        <mxCell id="v_Va48G61H6f7VJdGEz--3" value="edit coffee" style="strokeWidth=1;shadow=0;dashed=0;align=center;html=1;shape=mxgraph.mockup.forms.anchor;fontSize=12;fontColor=#666666;align=left;resizeWidth=1;spacingLeft=0;" parent="v_Va48G61H6f7VJdGEz--2" vertex="1">
          <mxGeometry width="202.00000000000003" height="20" relative="1" as="geometry">
            <mxPoint x="10" y="10" as="offset" />
          </mxGeometry>
        </mxCell>
        <mxCell id="v_Va48G61H6f7VJdGEz--4" value="" style="shape=line;strokeColor=#ddeeff;strokeWidth=2;html=1;resizeWidth=1;" parent="v_Va48G61H6f7VJdGEz--2" vertex="1">
          <mxGeometry width="363.59999999999997" height="10" relative="1" as="geometry">
            <mxPoint x="10" y="30" as="offset" />
          </mxGeometry>
        </mxCell>
        <mxCell id="v_Va48G61H6f7VJdGEz--5" value="Roaster" style="strokeWidth=1;shadow=0;dashed=0;align=center;html=1;shape=mxgraph.mockup.forms.anchor;fontSize=12;fontColor=#666666;align=left;resizeWidth=1;spacingLeft=0;" parent="v_Va48G61H6f7VJdGEz--2" vertex="1">
          <mxGeometry width="202.00000000000003" height="20" relative="1" as="geometry">
            <mxPoint x="29.07" y="79" as="offset" />
          </mxGeometry>
        </mxCell>
        <mxCell id="v_Va48G61H6f7VJdGEz--6" value="brand anme 1" style="strokeWidth=1;shadow=0;dashed=0;align=center;html=1;shape=mxgraph.mockup.forms.rrect;rSize=0;strokeColor=#999999;fontColor=#666666;align=left;spacingLeft=5;resizeWidth=1;" parent="v_Va48G61H6f7VJdGEz--2" vertex="1">
          <mxGeometry width="289.5496368038741" height="25" relative="1" as="geometry">
            <mxPoint x="29.07" y="100" as="offset" />
          </mxGeometry>
        </mxCell>
        <mxCell id="v_Va48G61H6f7VJdGEz--7" value="Submit" style="strokeWidth=1;shadow=0;dashed=0;align=center;html=1;shape=mxgraph.mockup.forms.rrect;rSize=5;strokeColor=none;fontColor=#ffffff;fillColor=#66bbff;fontSize=16;fontStyle=1;" parent="v_Va48G61H6f7VJdGEz--2" vertex="1">
          <mxGeometry y="1" width="80" height="30" relative="1" as="geometry">
            <mxPoint x="302" y="-39" as="offset" />
          </mxGeometry>
        </mxCell>
        <mxCell id="v_Va48G61H6f7VJdGEz--8" value="" style="shape=line;strokeColor=#ddeeff;strokeWidth=2;html=1;resizeWidth=1;" parent="v_Va48G61H6f7VJdGEz--2" vertex="1">
          <mxGeometry y="1" width="363.59999999999997" height="10" relative="1" as="geometry">
            <mxPoint x="20.65" y="-63" as="offset" />
          </mxGeometry>
        </mxCell>
        <mxCell id="v_Va48G61H6f7VJdGEz--9" value="Clear" style="strokeWidth=1;shadow=0;dashed=0;align=center;html=1;shape=mxgraph.mockup.forms.rrect;rSize=5;strokeColor=none;fontColor=#ffffff;fillColor=#66bbff;fontSize=16;fontStyle=1;" parent="v_Va48G61H6f7VJdGEz--2" vertex="1">
          <mxGeometry y="1" width="80" height="30" relative="1" as="geometry">
            <mxPoint x="213" y="-39" as="offset" />
          </mxGeometry>
        </mxCell>
        <mxCell id="v_Va48G61H6f7VJdGEz--10" value="8oz" style="shape=ellipse;fillColor=#eeeeee;strokeColor=#999999;gradientColor=#cccccc;html=1;align=left;spacingLeft=4;fontSize=17;fontColor=#666666;labelPosition=right;shadow=0;" parent="v_Va48G61H6f7VJdGEz--2" vertex="1">
          <mxGeometry x="34.320388349514566" y="153.00204081632654" width="14.708737864077671" height="17.551020408163264" as="geometry" />
        </mxCell>
        <mxCell id="v_Va48G61H6f7VJdGEz--11" value="32oz" style="shape=ellipse;fillColor=#eeeeee;strokeColor=#999999;gradientColor=#cccccc;html=1;align=left;spacingLeft=4;fontSize=17;fontColor=#666666;labelPosition=right;shadow=0;" parent="v_Va48G61H6f7VJdGEz--2" vertex="1">
          <mxGeometry x="263.77669902912623" y="153.00204081632654" width="14.708737864077671" height="17.551020408163264" as="geometry" />
        </mxCell>
        <mxCell id="v_Va48G61H6f7VJdGEz--12" value="16oz" style="shape=ellipse;fillColor=#eeeeee;strokeColor=#999999;gradientColor=#cccccc;html=1;align=left;spacingLeft=4;fontSize=17;fontColor=#666666;labelPosition=right;shadow=0;" parent="v_Va48G61H6f7VJdGEz--2" vertex="1">
          <mxGeometry x="149.0485436893204" y="153.00204081632654" width="14.708737864077671" height="17.551020408163264" as="geometry" />
        </mxCell>
        <mxCell id="v_Va48G61H6f7VJdGEz--13" value="Roast" style="rounded=1;fillColor=none;strokeColor=none;html=1;fontColor=#596780;align=left;fontSize=11;spacingLeft=10;fontSize=11" parent="v_Va48G61H6f7VJdGEz--2" vertex="1">
          <mxGeometry x="27.39021039516679" y="189.99517006802722" width="98.05825242718446" height="23.401360544217688" as="geometry" />
        </mxCell>
        <mxCell id="v_Va48G61H6f7VJdGEz--14" value="blonde" style="rounded=1;fillColor=#F1F2F4;strokeColor=none;html=1;fontColor=#596780;align=left;fontSize=12;spacingLeft=10" parent="v_Va48G61H6f7VJdGEz--2" vertex="1">
          <mxGeometry x="27.39021039516679" y="213.39653061224487" width="280.4466019417476" height="38.61224489795918" as="geometry" />
        </mxCell>
        <mxCell id="v_Va48G61H6f7VJdGEz--15" value="" style="shape=triangle;direction=south;fillColor=#596780;strokeColor=none;html=1" parent="v_Va48G61H6f7VJdGEz--14" vertex="1">
          <mxGeometry x="1" y="0.5" width="12" height="6" relative="1" as="geometry">
            <mxPoint x="-20" y="-3" as="offset" />
          </mxGeometry>
        </mxCell>
        <mxCell id="v_Va48G61H6f7VJdGEz--16" value="Package" style="rounded=1;fillColor=none;strokeColor=none;html=1;fontColor=#596780;align=left;fontSize=11;spacingLeft=10;fontSize=11" parent="v_Va48G61H6f7VJdGEz--2" vertex="1">
          <mxGeometry x="30.329298761136844" y="265.9995918367347" width="98.05825242718446" height="23.401360544217688" as="geometry" />
        </mxCell>
        <mxCell id="v_Va48G61H6f7VJdGEz--17" value="beans" style="rounded=1;fillColor=#F1F2F4;strokeColor=none;html=1;fontColor=#596780;align=left;fontSize=12;spacingLeft=10" parent="v_Va48G61H6f7VJdGEz--2" vertex="1">
          <mxGeometry x="30.329298761136844" y="289.40095238095233" width="280.4466019417476" height="38.61224489795918" as="geometry" />
        </mxCell>
        <mxCell id="v_Va48G61H6f7VJdGEz--18" value="" style="shape=triangle;direction=south;fillColor=#596780;strokeColor=none;html=1" parent="v_Va48G61H6f7VJdGEz--17" vertex="1">
          <mxGeometry x="1" y="0.5" width="12" height="6" relative="1" as="geometry">
            <mxPoint x="-20" y="-3" as="offset" />
          </mxGeometry>
        </mxCell>
        <mxCell id="v_Va48G61H6f7VJdGEz--19" value="" style="strokeWidth=1;shadow=0;dashed=0;align=center;html=1;shape=mxgraph.mockup.forms.anchor;fontSize=12;fontColor=#666666;align=left;resizeWidth=1;spacingLeft=0;" parent="v_Va48G61H6f7VJdGEz--2" vertex="1">
          <mxGeometry x="17.160194174757283" y="415.3741496598639" width="202.00000000000003" height="23.401360544217688" as="geometry">
            <mxPoint x="10" y="40" as="offset" />
          </mxGeometry>
        </mxCell>
        <mxCell id="v_Va48G61H6f7VJdGEz--20" value="" style="html=1;verticalLabelPosition=bottom;labelBackgroundColor=#ffffff;verticalAlign=top;shadow=0;dashed=0;strokeWidth=1;shape=mxgraph.ios7ui.slider;barPos=20;strokeColor=#0080f0;strokeColor2=#a0a0a0;" parent="v_Va48G61H6f7VJdGEz--2" vertex="1">
          <mxGeometry x="34.23728813559322" y="388" width="294.44067796610165" height="15" as="geometry" />
        </mxCell>
        <mxCell id="v_Va48G61H6f7VJdGEz--21" value="Medium" style="text;html=1;strokeColor=none;fillColor=none;align=center;verticalAlign=middle;whiteSpace=wrap;rounded=0;" parent="v_Va48G61H6f7VJdGEz--2" vertex="1">
          <mxGeometry x="34.23728813559322" y="361" width="115.42857142857142" height="20" as="geometry" />
        </mxCell>
        <mxCell id="v_Va48G61H6f7VJdGEz--22" value="" style="verticalLabelPosition=bottom;verticalAlign=top;html=1;shadow=0;dashed=0;strokeWidth=1;shape=mxgraph.android.switch_on;fillColor=#E6E6E6;" parent="v_Va48G61H6f7VJdGEz--2" vertex="1">
          <mxGeometry x="40.233704600484266" y="507" width="78.25665859564164" height="20" as="geometry" />
        </mxCell>
        <mxCell id="v_Va48G61H6f7VJdGEz--23" value="Costa rica" style="rounded=0;whiteSpace=wrap;html=1;" parent="v_Va48G61H6f7VJdGEz--2" vertex="1">
          <mxGeometry x="36.19370460048426" y="438" width="298.35351089588374" height="28" as="geometry" />
        </mxCell>
        <mxCell id="v_Va48G61H6f7VJdGEz--24" value="origin" style="text;html=1;strokeColor=none;fillColor=none;align=center;verticalAlign=middle;whiteSpace=wrap;rounded=0;" parent="v_Va48G61H6f7VJdGEz--2" vertex="1">
          <mxGeometry x="36.19370460048426" y="411" width="39.12832929782082" height="20" as="geometry" />
        </mxCell>
        <mxCell id="v_Va48G61H6f7VJdGEz--25" value="single origin?" style="text;html=1;strokeColor=none;fillColor=none;align=center;verticalAlign=middle;whiteSpace=wrap;rounded=0;" parent="v_Va48G61H6f7VJdGEz--2" vertex="1">
          <mxGeometry x="36.19370460048426" y="477" width="89.01694915254235" height="20" as="geometry" />
        </mxCell>
        <mxCell id="v_Va48G61H6f7VJdGEz--26" value="Tastes great" style="rounded=0;whiteSpace=wrap;html=1;" parent="v_Va48G61H6f7VJdGEz--2" vertex="1">
          <mxGeometry x="36.19370460048426" y="560" width="302.26634382566584" height="60" as="geometry" />
        </mxCell>
        <mxCell id="v_Va48G61H6f7VJdGEz--27" value="Notes" style="text;html=1;strokeColor=none;fillColor=none;align=center;verticalAlign=middle;whiteSpace=wrap;rounded=0;" parent="v_Va48G61H6f7VJdGEz--2" vertex="1">
          <mxGeometry x="36.19" y="537" width="40" height="20" as="geometry" />
        </mxCell>
        <mxCell id="v_Va48G61H6f7VJdGEz--28" value="ID:" style="text;html=1;strokeColor=none;fillColor=none;align=center;verticalAlign=middle;whiteSpace=wrap;rounded=0;" parent="v_Va48G61H6f7VJdGEz--2" vertex="1">
          <mxGeometry x="30" y="46" width="40" height="20" as="geometry" />
        </mxCell>
        <mxCell id="v_Va48G61H6f7VJdGEz--29" value="1" style="text;html=1;strokeColor=none;fillColor=none;align=center;verticalAlign=middle;whiteSpace=wrap;rounded=0;" parent="v_Va48G61H6f7VJdGEz--2" vertex="1">
          <mxGeometry x="60.7" y="46" width="40" height="20" as="geometry" />
        </mxCell>
        <mxCell id="v_Va48G61H6f7VJdGEz--30" value="" style="shape=ellipse;fillColor=#0065FF;strokeColor=none;html=1" parent="v_Va48G61H6f7VJdGEz--2" vertex="1">
          <mxGeometry x="36" y="157" width="10" height="10" as="geometry" />
        </mxCell>
        <mxCell id="v_Va48G61H6f7VJdGEz--31" value="DELETE COFFEE" style="rounded=1;html=1;shadow=0;dashed=0;whiteSpace=wrap;fontSize=10;fillColor=#ffcccc;align=center;strokeColor=#36393d;" parent="v_Va48G61H6f7VJdGEz--2" vertex="1">
          <mxGeometry x="23" y="649" width="105.5" height="29" as="geometry" />
        </mxCell>
      </root>
    </mxGraphModel>
  </diagram>
  <diagram id="-SJlv27Rn_ta_8rfRaAA" name="detail form">
    <mxGraphModel dx="896" dy="657" grid="1" gridSize="10" guides="1" tooltips="1" connect="1" arrows="1" fold="1" page="1" pageScale="1" pageWidth="850" pageHeight="1100" math="0" shadow="0">
      <root>
        <mxCell id="kQBx8Ohnc-GBis-jRSDE-0" />
        <mxCell id="kQBx8Ohnc-GBis-jRSDE-1" parent="kQBx8Ohnc-GBis-jRSDE-0" />
      </root>
    </mxGraphModel>
  </diagram>
  <diagram id="NpFbXm06-D6l1403aIAl" name="Page-6">
    <mxGraphModel dx="896" dy="657" grid="1" gridSize="10" guides="1" tooltips="1" connect="1" arrows="1" fold="1" page="1" pageScale="1" pageWidth="850" pageHeight="1100" math="0" shadow="0">
      <root>
        <mxCell id="SmRJ54B9Y2Ba_eDmfweH-0" />
        <mxCell id="SmRJ54B9Y2Ba_eDmfweH-1" parent="SmRJ54B9Y2Ba_eDmfweH-0" />
        <mxCell id="SmRJ54B9Y2Ba_eDmfweH-2" value="" style="rounded=0;whiteSpace=wrap;html=1;" parent="SmRJ54B9Y2Ba_eDmfweH-1" vertex="1">
          <mxGeometry x="20" y="20" width="790" height="300" as="geometry" />
        </mxCell>
        <mxCell id="SmRJ54B9Y2Ba_eDmfweH-3" value="Submit" style="rounded=1;whiteSpace=wrap;html=1;" parent="SmRJ54B9Y2Ba_eDmfweH-1" vertex="1">
          <mxGeometry x="630" y="250" width="160" height="60" as="geometry" />
        </mxCell>
        <mxCell id="SmRJ54B9Y2Ba_eDmfweH-5" value="Single Origin [x ]" style="rounded=0;whiteSpace=wrap;html=1;" parent="SmRJ54B9Y2Ba_eDmfweH-1" vertex="1">
          <mxGeometry x="380" y="90" width="120" height="60" as="geometry" />
        </mxCell>
        <mxCell id="RAiCWvL-RQwSL-LTnuAz-0" value="Server" style="shape=cylinder;whiteSpace=wrap;html=1;boundedLbl=1;backgroundOutline=1;" parent="SmRJ54B9Y2Ba_eDmfweH-1" vertex="1">
          <mxGeometry x="740" y="430" width="50" height="80" as="geometry" />
        </mxCell>
        <mxCell id="RAiCWvL-RQwSL-LTnuAz-1" value="" style="triangle;whiteSpace=wrap;html=1;rotation=-180;" parent="SmRJ54B9Y2Ba_eDmfweH-1" vertex="1">
          <mxGeometry x="530" y="430" width="60" height="80" as="geometry" />
        </mxCell>
        <mxCell id="RAiCWvL-RQwSL-LTnuAz-3" value="" style="endArrow=classic;html=1;entryX=0;entryY=0.5;entryDx=0;entryDy=0;exitX=0;exitY=0.5;exitDx=0;exitDy=0;" parent="SmRJ54B9Y2Ba_eDmfweH-1" source="RAiCWvL-RQwSL-LTnuAz-0" target="RAiCWvL-RQwSL-LTnuAz-1" edge="1">
          <mxGeometry width="50" height="50" relative="1" as="geometry">
            <mxPoint x="20" y="580" as="sourcePoint" />
            <mxPoint x="70" y="530" as="targetPoint" />
          </mxGeometry>
        </mxCell>
        <mxCell id="RAiCWvL-RQwSL-LTnuAz-4" value="" style="whiteSpace=wrap;html=1;aspect=fixed;" parent="SmRJ54B9Y2Ba_eDmfweH-1" vertex="1">
          <mxGeometry x="90" y="380" width="190" height="190" as="geometry" />
        </mxCell>
        <mxCell id="RAiCWvL-RQwSL-LTnuAz-5" value="" style="endArrow=classic;html=1;entryX=1.005;entryY=0.463;entryDx=0;entryDy=0;entryPerimeter=0;exitX=1;exitY=0.5;exitDx=0;exitDy=0;" parent="SmRJ54B9Y2Ba_eDmfweH-1" source="RAiCWvL-RQwSL-LTnuAz-1" target="RAiCWvL-RQwSL-LTnuAz-4" edge="1">
          <mxGeometry width="50" height="50" relative="1" as="geometry">
            <mxPoint x="20" y="670" as="sourcePoint" />
            <mxPoint x="70" y="620" as="targetPoint" />
          </mxGeometry>
        </mxCell>
      </root>
    </mxGraphModel>
  </diagram>
</mxfile>
